<svg width="485" height="423" viewBox="0 0 485 423" fill="none" xmlns="http://www.w3.org/2000/svg">
<g clip-path="url(#clip0)">
<path d="M414.601 132H414.476L342.986 162.527L245.173 204.294C244.791 204.454 244.381 204.538 243.966 204.54C243.551 204.542 243.14 204.463 242.757 204.306L141.842 162.439L68.5957 132.05L68.4838 132H68.3592C67.2035 132.001 66.0954 132.461 65.2782 133.278C64.461 134.095 64.0013 135.203 64 136.359V325.671C64.0013 326.827 64.461 327.935 65.2782 328.752C66.0954 329.569 67.2035 330.029 68.3592 330.03H414.601C415.757 330.029 416.865 329.569 417.682 328.752C418.499 327.935 418.959 326.827 418.96 325.671V136.359C418.959 135.203 418.499 134.095 417.682 133.278C416.865 132.461 415.757 132.001 414.601 132V132Z" fill="white"/>
<path d="M416.029 133.318C415.902 133.318 415.778 133.279 415.673 133.206L243.45 13.2651C242.926 12.9018 242.303 12.7076 241.665 12.7087C241.028 12.7098 240.405 12.9061 239.883 13.2712L68.8998 133.205C68.7645 133.299 68.5974 133.336 68.4352 133.307C68.2729 133.278 68.1287 133.187 68.034 133.052C67.9394 132.917 67.9021 132.75 67.9303 132.587C67.9585 132.425 68.0499 132.28 68.1844 132.185L239.167 12.2513C239.9 11.7403 240.771 11.4656 241.663 11.4641C242.556 11.4626 243.428 11.7345 244.162 12.2431L416.385 132.184C416.494 132.26 416.576 132.369 416.619 132.494C416.661 132.62 416.663 132.755 416.623 132.882C416.584 133.008 416.504 133.119 416.398 133.197C416.291 133.276 416.162 133.318 416.029 133.318Z" fill="#202041" stroke="#202041" stroke-width="2"/>
<path d="M79 135.925L242.164 15L406.567 144.529L250.571 237.005L165.879 217.701L79 135.925Z" fill="#FF7A85"/>
<path d="M172.698 295.769H92.0911C91.0923 295.771 90.1338 295.375 89.4265 294.67C88.7192 293.965 88.3211 293.008 88.3196 292.009C88.3181 291.01 88.7134 290.052 89.4186 289.344C90.1238 288.637 91.0812 288.239 92.08 288.237H172.698C173.697 288.236 174.656 288.631 175.363 289.336C176.07 290.042 176.468 290.999 176.47 291.998C176.471 292.996 176.076 293.955 175.371 294.662C174.666 295.369 173.708 295.768 172.709 295.769H172.698Z" fill="#202041"/>
<path d="M121.011 279.578H92.091C91.0927 279.579 90.1349 279.183 89.4282 278.478C88.7214 277.773 88.3236 276.816 88.3221 275.818C88.3207 274.819 88.7156 273.861 89.4203 273.154C90.1249 272.447 91.0816 272.048 92.0799 272.046H121.011C121.506 272.045 121.996 272.142 122.453 272.33C122.911 272.518 123.327 272.795 123.677 273.144C124.028 273.494 124.306 273.908 124.496 274.365C124.686 274.822 124.784 275.312 124.785 275.806C124.786 276.301 124.689 276.791 124.5 277.249C124.312 277.706 124.035 278.122 123.685 278.472C123.336 278.822 122.921 279.1 122.464 279.29C122.007 279.48 121.517 279.578 121.022 279.578H121.011Z" fill="#202041"/>
<path d="M244.129 204.923C243.516 204.924 242.91 204.805 242.342 204.573L141.714 162.819V32.1231C141.715 30.9674 142.175 29.8594 142.992 29.0422C143.809 28.225 144.917 27.7653 146.073 27.7639H339.122C340.277 27.7653 341.385 28.225 342.202 29.0422C343.02 29.8594 343.479 30.9674 343.481 32.1231V162.911L343.292 162.992L245.97 204.553C245.387 204.798 244.761 204.924 244.129 204.923V204.923Z" fill="white"/>
<path d="M244.129 205.234C243.476 205.235 242.829 205.108 242.224 204.862L141.402 163.027V32.1232C141.404 30.8849 141.896 29.6977 142.772 28.8221C143.648 27.9466 144.835 27.454 146.073 27.4526H339.122C340.36 27.454 341.547 27.9466 342.422 28.8221C343.298 29.6977 343.791 30.8849 343.792 32.1232V163.116L246.092 204.839C245.471 205.101 244.803 205.235 244.129 205.234V205.234ZM142.648 162.196L242.699 203.71C243.632 204.089 244.677 204.082 245.606 203.693L342.547 162.294V32.1232C342.545 31.2151 342.184 30.3446 341.542 29.7025C340.9 29.0604 340.03 28.6992 339.122 28.6982H146.073C145.165 28.6992 144.294 29.0604 143.652 29.7025C143.01 30.3446 142.649 31.2151 142.648 32.1232L142.648 162.196Z" fill="#202041" stroke="black"/>
<path d="M415.772 132.073H415.647L343.955 162.599L245.866 204.366C245.483 204.527 245.072 204.611 244.656 204.613C244.24 204.615 243.828 204.535 243.443 204.379L142.244 162.512L68.7917 132.122L68.6794 132.073H68.5544C67.3954 132.074 66.2843 132.533 65.4648 133.351C64.6453 134.168 64.1843 135.276 64.183 136.432V325.744C64.1843 326.899 64.6453 328.007 65.4648 328.825C66.2843 329.642 67.3954 330.102 68.5544 330.103H415.772C416.931 330.102 418.042 329.642 418.861 328.825C419.681 328.007 420.142 326.899 420.143 325.744V136.432C420.142 135.276 419.681 134.168 418.861 133.351C418.042 132.533 416.931 132.074 415.772 132.073V132.073ZM418.894 325.744C418.894 326.569 418.565 327.361 417.979 327.945C417.394 328.529 416.6 328.857 415.772 328.857H68.5544C67.7264 328.857 66.9323 328.529 66.3468 327.945C65.7613 327.361 65.4323 326.569 65.432 325.744V136.432C65.4331 135.626 65.7463 134.853 66.3061 134.273C66.8659 133.692 67.629 133.35 68.4358 133.318L142.244 163.857L242.963 205.531C244.053 205.973 245.274 205.966 246.36 205.512L343.955 163.95L415.897 133.318C416.702 133.353 417.463 133.696 418.021 134.276C418.58 134.856 418.892 135.628 418.894 136.432V325.744Z" fill="#3F3D56" stroke="#202041" stroke-width="2"/>
<path d="M228.463 76.6186H159.962C158.642 76.6167 157.377 76.091 156.444 75.1569C155.511 74.2228 154.987 72.9567 154.987 71.6367C154.987 70.3166 155.511 69.0505 156.444 68.1164C157.377 67.1824 158.642 66.6567 159.962 66.6548H228.463C229.783 66.6567 231.048 67.1824 231.981 68.1164C232.914 69.0505 233.438 70.3166 233.438 71.6367C233.438 72.9567 232.914 74.2228 231.981 75.1569C231.048 76.091 229.783 76.6167 228.463 76.6186V76.6186Z" fill="#202041"/>
<path d="M192.967 55.4457H159.962C158.641 55.4457 157.373 54.9208 156.439 53.9866C155.505 53.0523 154.98 51.7851 154.98 50.4638C154.98 49.1425 155.505 47.8754 156.439 46.9411C157.373 46.0068 158.641 45.4819 159.962 45.4819H192.967C194.288 45.4819 195.555 46.0068 196.49 46.9411C197.424 47.8754 197.949 49.1425 197.949 50.4638C197.949 51.7851 197.424 53.0523 196.49 53.9866C195.555 54.9208 194.288 55.4457 192.967 55.4457V55.4457Z" fill="#202041"/>
<path d="M293.831 126.438H189.211C187.891 126.436 186.626 125.91 185.693 124.976C184.76 124.042 184.236 122.776 184.236 121.456C184.236 120.136 184.76 118.87 185.693 117.936C186.626 117.001 187.891 116.476 189.211 116.474H293.831C295.151 116.476 296.416 117.001 297.349 117.936C298.282 118.87 298.806 120.136 298.806 121.456C298.806 122.776 298.282 124.042 297.349 124.976C296.416 125.91 295.151 126.436 293.831 126.438V126.438Z" fill="#FF7A85"/>
<path d="M293.831 149.479H189.211C187.89 149.479 186.623 148.954 185.688 148.02C184.754 147.085 184.229 145.818 184.229 144.497C184.229 143.176 184.754 141.909 185.688 140.974C186.623 140.04 187.89 139.515 189.211 139.515H293.831C295.152 139.515 296.419 140.04 297.354 140.974C298.288 141.909 298.813 143.176 298.813 144.497C298.813 145.818 298.288 147.085 297.354 148.02C296.419 148.954 295.152 149.479 293.831 149.479V149.479Z" fill="#FF7A85"/>
<path d="M412.853 181.249C439.016 181.249 460.224 160.04 460.224 133.878C460.224 107.715 439.016 86.5066 412.853 86.5066C386.691 86.5066 365.482 107.715 365.482 133.878C365.482 160.04 386.691 181.249 412.853 181.249Z" fill="#202041"/>
<path d="M408.339 153.875L394.161 135.644L402.406 129.231L409.119 137.863L431.798 113.922L439.382 121.107L408.339 153.875Z" fill="#FF7A85"/>
<path d="M10.8558 46.2782C10.5325 46.087 10.1618 45.9909 9.78631 46.0007C9.41081 46.0105 9.04566 46.1259 8.73275 46.3338C8.41984 46.5416 8.17182 46.8333 8.01711 47.1756C7.8624 47.5179 7.80729 47.8969 7.85806 48.269L9.40188 59.5924C9.42311 59.7593 9.41171 59.9288 9.36831 60.0914C9.31989 60.2515 9.23911 60.3999 9.13097 60.5275L0.484246 70.7711C0.195386 71.1008 0.0257817 71.5181 0.00270936 71.9559C-0.020363 72.3936 0.104449 72.8264 0.357049 73.1846L0.366113 73.1978C0.608092 73.5599 0.964265 73.8306 1.37792 73.9669C1.79158 74.1032 2.23894 74.0972 2.64877 73.9498L8.89324 71.8303C9.10025 71.7618 9.32197 71.7509 9.53469 71.7988C9.74741 71.8466 9.94312 71.9514 10.1009 72.102C10.2185 72.211 10.3124 72.3431 10.3765 72.4902C10.4406 72.6372 10.4735 72.7959 10.4733 72.9563L10.7173 95.2052C10.7199 95.5273 10.8008 95.8439 10.9531 96.1277C11.1054 96.4115 11.3245 96.654 11.5915 96.8342C11.8575 97.0139 12.1628 97.1271 12.4817 97.1643C12.8006 97.2014 13.1238 97.1614 13.424 97.0476L60.0311 79.2231C60.3825 79.0894 60.6891 78.8592 60.9155 78.559C61.142 78.2588 61.2791 77.9008 61.3111 77.5261C61.3431 77.1515 61.2688 76.7754 61.0965 76.4411C60.9243 76.1069 60.6612 75.828 60.3376 75.6366L59.7031 75.2597L10.8558 46.2782V46.2782ZM8.64709 48.1602C8.61711 47.9368 8.65066 47.7094 8.74392 47.5041C8.83718 47.2988 8.98637 47.1239 9.1744 46.9994C9.36243 46.8749 9.58171 46.806 9.80712 46.8003C10.0325 46.7947 10.255 46.8527 10.449 46.9676L59.2806 75.9405L59.9307 76.3259C60.1238 76.4413 60.2806 76.6087 60.3832 76.8089C60.4859 77.0092 60.5301 77.2342 60.5111 77.4584C60.4921 77.6826 60.4105 77.8969 60.2756 78.077C60.1407 78.2571 59.9579 78.3956 59.748 78.4769L13.141 96.3014C12.9607 96.37 12.7666 96.394 12.575 96.3715C12.3835 96.349 12.2002 96.2805 12.0408 96.172C11.8814 96.0635 11.7505 95.918 11.6593 95.7481C11.5681 95.5782 11.5192 95.3887 11.5169 95.1959L11.2729 72.9472C11.2731 72.727 11.2352 72.5085 11.1611 72.3012L58.6114 77.7531C58.7965 77.7762 58.9838 77.7339 59.1409 77.6336C59.2981 77.5333 59.4153 77.3811 59.4722 77.2036C59.5291 77.026 59.5221 76.8341 59.4525 76.6611C59.3829 76.4881 59.255 76.3449 59.091 76.2562C59.0512 76.234 59.0093 76.2158 58.966 76.2018L10.2052 59.9253C10.217 59.778 10.2122 59.6298 10.1909 59.4835L8.64706 48.1603L8.64709 48.1602Z" fill="#FF7A85"/>
<path d="M10.8558 46.2782C10.5325 46.087 10.1618 45.9909 9.78631 46.0007C9.41081 46.0105 9.04566 46.1259 8.73275 46.3338C8.41984 46.5416 8.17182 46.8333 8.01711 47.1756C7.8624 47.5179 7.80729 47.8969 7.85806 48.269L9.40188 59.5924C9.42311 59.7593 9.41171 59.9288 9.36831 60.0914C9.31989 60.2515 9.23911 60.3999 9.13097 60.5275L0.484246 70.7711C0.195386 71.1008 0.0257817 71.5181 0.00270936 71.9559C-0.020363 72.3936 0.104449 72.8264 0.357049 73.1846L0.366113 73.1978C0.608092 73.5599 0.964265 73.8306 1.37792 73.9669C1.79158 74.1032 2.23894 74.0972 2.64877 73.9498L8.89324 71.8303C9.10025 71.7618 9.32197 71.7509 9.53469 71.7988C9.74741 71.8466 9.94312 71.9514 10.1009 72.102C10.2185 72.211 10.3124 72.3431 10.3765 72.4902C10.4406 72.6372 10.4735 72.7959 10.4733 72.9563L10.7173 95.2052C10.7199 95.5273 10.8008 95.8439 10.9531 96.1277C11.1054 96.4115 11.3245 96.654 11.5915 96.8342C11.8575 97.0139 12.1628 97.1271 12.4817 97.1643C12.8006 97.2014 13.1238 97.1614 13.424 97.0476L60.0311 79.2231C60.3825 79.0894 60.6891 78.8592 60.9155 78.559C61.142 78.2588 61.2791 77.9008 61.3111 77.5261C61.3431 77.1515 61.2688 76.7754 61.0965 76.4411C60.9243 76.1069 60.6612 75.828 60.3376 75.6366L59.7031 75.2597L10.8558 46.2782V46.2782ZM8.64709 48.1602C8.61711 47.9368 8.65066 47.7094 8.74392 47.5041C8.83718 47.2988 8.98637 47.1239 9.1744 46.9994C9.36243 46.8749 9.58171 46.806 9.80712 46.8003C10.0325 46.7947 10.255 46.8527 10.449 46.9676L59.2806 75.9405L59.9307 76.3259C60.1238 76.4413 60.2806 76.6087 60.3832 76.8089C60.4859 77.0092 60.5301 77.2342 60.5111 77.4584C60.4921 77.6826 60.4105 77.8969 60.2756 78.077C60.1407 78.2571 59.9579 78.3956 59.748 78.4769L13.141 96.3014C12.9607 96.37 12.7666 96.394 12.575 96.3715C12.3835 96.3489 12.2002 96.2805 12.0408 96.172C11.8814 96.0634 11.7505 95.918 11.6593 95.7481C11.5681 95.5782 11.5192 95.3887 11.5169 95.1959L11.2729 72.9471C11.273 72.727 11.2352 72.5084 11.1611 72.3011C11.0567 72.0026 10.8809 71.7341 10.6492 71.5189C10.6177 71.4873 10.5829 71.458 10.548 71.4286L10.5457 71.4254C10.2839 71.2092 9.97124 71.0636 9.63732 71.0022C9.30341 70.9408 8.95933 70.9658 8.63778 71.0748L2.39007 73.1965C2.14381 73.2859 1.87456 73.2895 1.62603 73.2066C1.3775 73.1238 1.16423 72.9595 1.02081 72.7403L1.01626 72.7337C0.86295 72.5196 0.78706 72.2597 0.80108 71.9967C0.815099 71.7337 0.918202 71.4834 1.09341 71.2868L9.74026 61.0433C9.8327 60.936 9.91278 60.8187 9.979 60.6935L9.98229 60.6912C10.0462 60.5714 10.0972 60.445 10.1344 60.3144C10.1718 60.1876 10.1955 60.0572 10.2052 59.9254C10.217 59.7781 10.2123 59.6299 10.1909 59.4836L8.64709 48.1603V48.1602Z" fill="#FF7A85" stroke="#FF7A85"/>
<path d="M10.2052 59.9253L58.9659 76.2018C59.0093 76.2158 59.0512 76.234 59.0909 76.2561C59.255 76.3448 59.3828 76.4881 59.4524 76.6611C59.522 76.8341 59.5289 77.026 59.472 77.2035C59.4152 77.3811 59.298 77.5332 59.1409 77.6336C58.9837 77.7339 58.7964 77.7762 58.6114 77.7531L11.161 72.3011L10.3231 72.2057L10.4159 71.4132L10.5457 71.4254L10.5479 71.4285L58.7019 76.9574L9.98224 60.6912L9.97894 60.6934L9.76837 60.6207L10.0213 59.863L10.2052 59.9253Z" fill="#FF7A85"/>
<path d="M157.088 396.352C156.754 396.523 156.474 396.785 156.282 397.108C156.09 397.431 155.992 397.801 156.001 398.176C156.009 398.552 156.123 398.918 156.33 399.231C156.536 399.545 156.827 399.794 157.169 399.95L167.565 404.697C167.717 404.768 167.854 404.868 167.968 404.992C168.078 405.118 168.16 405.266 168.21 405.425L172.247 418.208C172.372 418.628 172.634 418.995 172.991 419.248C173.349 419.502 173.781 419.628 174.219 419.605L174.235 419.605C174.671 419.594 175.09 419.437 175.426 419.161C175.762 418.884 175.996 418.503 176.091 418.077L177.636 411.667C177.689 411.455 177.799 411.262 177.953 411.108C178.107 410.954 178.3 410.844 178.511 410.791C178.666 410.75 178.828 410.741 178.987 410.766C179.145 410.79 179.297 410.847 179.433 410.933L198.368 422.617C198.642 422.787 198.953 422.888 199.274 422.911C199.595 422.934 199.917 422.878 200.212 422.749C200.506 422.62 200.765 422.422 200.967 422.173C201.169 421.923 201.308 421.629 201.372 421.314L211.214 372.395C211.289 372.027 211.258 371.644 211.126 371.293C210.993 370.941 210.764 370.634 210.464 370.406C210.164 370.179 209.807 370.041 209.432 370.008C209.058 369.975 208.681 370.048 208.347 370.219L207.689 370.554L157.088 396.352V396.352ZM157.499 399.225C157.294 399.131 157.119 398.981 156.996 398.792C156.872 398.604 156.804 398.384 156.799 398.159C156.794 397.933 156.853 397.711 156.969 397.518C157.085 397.324 157.253 397.167 157.453 397.065L208.039 371.275L208.712 370.932C208.913 370.83 209.138 370.787 209.362 370.807C209.586 370.828 209.8 370.91 209.979 371.046C210.158 371.182 210.296 371.366 210.376 371.576C210.456 371.786 210.476 372.015 210.432 372.235L200.59 421.154C200.551 421.343 200.468 421.52 200.347 421.67C200.225 421.82 200.069 421.938 199.892 422.015C199.716 422.092 199.523 422.125 199.33 422.111C199.138 422.097 198.952 422.037 198.787 421.936L179.852 410.252C179.666 410.135 179.461 410.05 179.246 410.002L209.213 372.809C209.331 372.665 209.396 372.484 209.395 372.298C209.394 372.111 209.328 371.931 209.208 371.788C209.089 371.645 208.923 371.549 208.739 371.515C208.556 371.481 208.367 371.513 208.204 371.604C208.164 371.626 208.126 371.651 208.091 371.681L168.275 404.196C168.157 404.107 168.029 404.032 167.894 403.972L157.499 399.225V399.225Z" fill="#FF7A85" stroke="#FF7A85"/>
<path d="M157.088 396.352C156.754 396.523 156.474 396.785 156.282 397.108C156.09 397.431 155.992 397.801 156.001 398.176C156.009 398.552 156.123 398.918 156.33 399.231C156.536 399.545 156.827 399.794 157.169 399.95L167.565 404.697C167.717 404.768 167.854 404.868 167.968 404.992C168.078 405.118 168.16 405.266 168.21 405.425L172.247 418.208C172.372 418.628 172.634 418.995 172.991 419.248C173.349 419.502 173.781 419.628 174.219 419.605L174.235 419.605C174.671 419.594 175.09 419.437 175.426 419.161C175.762 418.884 175.996 418.503 176.091 418.077L177.636 411.667C177.689 411.455 177.799 411.262 177.953 411.108C178.107 410.954 178.3 410.844 178.511 410.791C178.666 410.75 178.828 410.741 178.987 410.766C179.145 410.79 179.297 410.847 179.433 410.933L198.368 422.617C198.642 422.787 198.953 422.888 199.274 422.911C199.595 422.934 199.917 422.878 200.212 422.749C200.506 422.62 200.765 422.422 200.967 422.173C201.169 421.923 201.308 421.629 201.372 421.314L211.214 372.395C211.289 372.027 211.258 371.644 211.126 371.293C210.993 370.941 210.764 370.634 210.464 370.406C210.164 370.179 209.807 370.041 209.432 370.008C209.058 369.975 208.681 370.048 208.347 370.219L207.689 370.554L157.088 396.352ZM157.499 399.225C157.294 399.131 157.119 398.981 156.996 398.792C156.872 398.604 156.804 398.384 156.799 398.159C156.794 397.933 156.853 397.711 156.969 397.518C157.085 397.324 157.253 397.167 157.453 397.065L208.039 371.275L208.712 370.932C208.913 370.83 209.138 370.787 209.362 370.807C209.586 370.828 209.8 370.91 209.979 371.046C210.158 371.182 210.296 371.366 210.376 371.576C210.456 371.786 210.476 372.015 210.432 372.235L200.59 421.154C200.551 421.343 200.468 421.52 200.347 421.67C200.225 421.82 200.069 421.938 199.892 422.015C199.716 422.092 199.523 422.125 199.33 422.111C199.138 422.097 198.952 422.037 198.787 421.936L179.852 410.252C179.666 410.134 179.461 410.05 179.246 410.002C178.938 409.93 178.617 409.935 178.312 410.016C178.268 410.026 178.225 410.04 178.181 410.053L178.177 410.054C177.855 410.159 177.564 410.346 177.334 410.595C177.104 410.845 176.941 411.149 176.861 411.479L175.316 417.893C175.26 418.149 175.119 418.379 174.916 418.545C174.713 418.71 174.46 418.803 174.198 418.807L174.19 418.807C173.927 418.822 173.667 418.748 173.452 418.595C173.238 418.443 173.081 418.222 173.009 417.969L168.972 405.186C168.93 405.05 168.874 404.92 168.804 404.797L168.803 404.793C168.736 404.675 168.657 404.565 168.566 404.463C168.479 404.364 168.382 404.274 168.275 404.196C168.157 404.107 168.029 404.032 167.894 403.972L157.499 399.225Z" fill="#FF525D"/>
<path d="M168.275 404.195L208.091 371.681C208.126 371.651 208.164 371.626 208.204 371.604C208.367 371.513 208.556 371.481 208.739 371.515C208.923 371.548 209.089 371.645 209.208 371.788C209.328 371.931 209.394 372.111 209.395 372.298C209.396 372.484 209.331 372.665 209.213 372.809L179.246 410.001L178.718 410.659L178.098 410.157L178.177 410.054L178.181 410.053L208.589 372.307L168.803 404.793L168.804 404.797L168.63 404.936L168.124 404.318L168.275 404.195Z" fill="#FF7A85"/>
<path d="M448.192 6.23697L423.532 57.4018L423.211 58.0667C423.048 58.4052 422.983 58.783 423.024 59.1568C423.066 59.5305 423.212 59.885 423.446 60.1793C423.68 60.4737 423.992 60.6961 424.347 60.8209C424.701 60.9458 425.084 60.9679 425.451 60.8849L474.138 49.9516C474.451 49.8803 474.742 49.7349 474.987 49.5276C475.232 49.3202 475.424 49.0571 475.546 48.7602C475.669 48.4624 475.717 48.1392 475.687 47.8185C475.657 47.4978 475.549 47.1893 475.373 46.9196L463.269 28.2498C463.18 28.1163 463.12 27.9659 463.092 27.808C463.064 27.65 463.069 27.488 463.106 27.3321C463.155 27.1194 463.26 26.9239 463.41 26.7663C463.561 26.6088 463.752 26.4952 463.962 26.4377L470.337 24.7491C470.76 24.6452 471.136 24.4027 471.405 24.0604C471.674 23.718 471.821 23.2954 471.822 22.8599L471.823 22.8439C471.835 22.4058 471.699 21.9762 471.438 21.6243C471.177 21.2724 470.804 21.0186 470.381 20.9037L457.512 17.1534C457.351 17.1069 457.202 17.0279 457.073 16.9213C456.947 16.8099 456.843 16.675 456.769 16.5242L451.791 6.23714C451.627 5.89901 451.372 5.61381 451.054 5.41424C450.735 5.21468 450.367 5.10886 449.992 5.10884C449.616 5.10882 449.248 5.21459 448.93 5.41412C448.611 5.61365 448.356 5.89885 448.192 6.23696L448.192 6.23697ZM451.073 6.58304L456.051 16.87C456.114 17.0037 456.192 17.1298 456.284 17.246L424.667 57.7787C424.638 57.8144 424.614 57.8527 424.593 57.8932C424.505 58.0578 424.478 58.2479 424.516 58.4305C424.553 58.6131 424.654 58.7768 424.799 58.8933C424.945 59.0098 425.127 59.0717 425.313 59.0683C425.5 59.065 425.679 58.9966 425.82 58.875L462.333 28.0845C462.386 28.2982 462.476 28.5012 462.598 28.6845L474.702 47.354C474.807 47.516 474.871 47.7008 474.889 47.8928C474.907 48.0848 474.878 48.2784 474.805 48.457C474.733 48.6356 474.618 48.7939 474.471 48.9187C474.324 49.0434 474.149 49.1308 473.96 49.1734L425.274 60.1067C425.054 60.155 424.825 60.1407 424.613 60.0654C424.401 59.99 424.215 59.8566 424.075 59.6803C423.935 59.5041 423.847 59.2921 423.822 59.0685C423.797 58.845 423.835 58.6188 423.932 58.4158L424.26 57.7351L448.912 6.58617C449.011 6.38312 449.164 6.2118 449.355 6.0918C449.546 5.97179 449.766 5.90792 449.992 5.90758C450.217 5.90725 450.438 5.97044 450.63 6.08988C450.821 6.20932 450.975 6.38023 451.073 6.58299L451.073 6.58304Z" fill="#FF7A85"/>
<path d="M448.192 6.23697L423.532 57.4018L423.211 58.0667C423.048 58.4052 422.983 58.783 423.024 59.1568C423.066 59.5305 423.212 59.885 423.446 60.1793C423.68 60.4737 423.992 60.6961 424.347 60.8209C424.701 60.9458 425.084 60.9679 425.451 60.8849L474.138 49.9516C474.451 49.8803 474.742 49.7349 474.987 49.5276C475.232 49.3202 475.424 49.0571 475.546 48.7602C475.669 48.4624 475.717 48.1392 475.687 47.8185C475.657 47.4978 475.549 47.1893 475.373 46.9196L463.269 28.2498C463.18 28.1163 463.12 27.9659 463.092 27.808C463.064 27.65 463.069 27.488 463.106 27.3321C463.155 27.1194 463.26 26.9239 463.41 26.7663C463.561 26.6088 463.752 26.4952 463.962 26.4377L470.337 24.7491C470.76 24.6452 471.136 24.4027 471.405 24.0604C471.674 23.718 471.821 23.2954 471.822 22.8599L471.823 22.8439C471.835 22.4058 471.699 21.9762 471.438 21.6243C471.177 21.2724 470.804 21.0186 470.381 20.9037L457.512 17.1534C457.351 17.1069 457.202 17.0279 457.073 16.9213C456.947 16.8099 456.843 16.675 456.769 16.5242L451.791 6.23714C451.627 5.89901 451.372 5.61381 451.054 5.41424C450.735 5.21468 450.367 5.10886 449.992 5.10884C449.616 5.10882 449.248 5.21459 448.93 5.41412C448.611 5.61365 448.356 5.89885 448.192 6.23696L448.192 6.23697ZM451.073 6.58304L456.051 16.8701C456.114 17.0037 456.192 17.1298 456.284 17.246C456.365 17.3504 456.457 17.4459 456.558 17.5308C456.661 17.6191 456.773 17.6962 456.893 17.7607L456.897 17.7607C457.021 17.8284 457.153 17.8818 457.289 17.92L470.159 21.6702C470.414 21.7371 470.638 21.8886 470.795 22.0999C470.953 22.3112 471.033 22.5697 471.024 22.8329L471.024 22.8409C471.026 23.1028 470.939 23.3577 470.778 23.5642C470.616 23.7707 470.39 23.9167 470.136 23.9784L463.757 25.667C463.429 25.7541 463.128 25.9237 462.884 26.1595C462.64 26.3953 462.46 26.6897 462.361 27.0146L462.361 27.0185C462.349 27.0623 462.336 27.1059 462.327 27.1496C462.253 27.4571 462.255 27.7781 462.333 28.0845C462.386 28.2982 462.476 28.5012 462.598 28.6845L474.702 47.3541C474.807 47.516 474.871 47.7008 474.889 47.8928C474.907 48.0849 474.878 48.2784 474.805 48.457C474.733 48.6356 474.618 48.794 474.471 48.9187C474.324 49.0435 474.149 49.1308 473.96 49.1734L425.274 60.1067C425.054 60.155 424.825 60.1407 424.613 60.0654C424.401 59.99 424.215 59.8566 424.075 59.6804C423.935 59.5041 423.847 59.2921 423.822 59.0686C423.797 58.845 423.835 58.6188 423.932 58.4158L424.26 57.7352L448.913 6.58619C449.011 6.38313 449.164 6.21182 449.355 6.09181C449.546 5.9718 449.766 5.908 449.992 5.90766C450.217 5.90733 450.438 5.97045 450.63 6.08989C450.821 6.20933 450.975 6.38024 451.073 6.583L451.073 6.58304Z" fill="#FF525D" stroke="#FF7A85"/>
<path d="M456.402 17.0924L457.032 17.5837L456.897 17.7607L456.893 17.7607L425.305 58.2622L462.362 27.0184L462.362 27.0146L462.463 26.9327L462.979 27.5415L462.333 28.0845L425.82 58.875C425.679 58.9967 425.5 59.065 425.313 59.0684C425.127 59.0717 424.945 59.0098 424.799 58.8933C424.654 58.7769 424.553 58.6132 424.516 58.4306C424.478 58.2479 424.505 58.0579 424.593 57.8933C424.614 57.8528 424.638 57.8145 424.667 57.7788L456.284 17.246L456.402 17.0924Z" fill="#FF7A85"/>
</g>
<defs>
<clipPath id="clip0">
<rect width="485" height="423" fill="white"/>
</clipPath>
</defs>
</svg>
